<svg width="22" height="22" viewBox="0 0 22 22" fill="none" xmlns="http://www.w3.org/2000/svg">
<path d="M19 9.5V5.8C19 4.11984 19 3.27977 18.673 2.63803C18.3854 2.07354 17.9265 1.6146 17.362 1.32698C16.7202 1 15.8802 1 14.2 1L7.8 1C6.11984 1 5.27976 1 4.63803 1.32698C4.07354 1.6146 3.6146 2.07354 3.32698 2.63803C3 3.27976 3 4.11984 3 5.8L3 9.5M9 9H12.5M7 5L15 5M16.2 21H5.8C4.11984 21 3.27976 21 2.63803 20.673C2.07354 20.3854 1.6146 19.9265 1.32698 19.362C1 18.7202 1 17.8802 1 16.2V11.5621C1 10.6748 1 10.2311 1.18664 9.97015C1.34952 9.74244 1.60039 9.59343 1.87827 9.55935C2.19671 9.5203 2.5863 9.73256 3.36549 10.1571L9.25604 13.3664C9.88728 13.7767 10.2029 13.9819 10.543 14.0617C10.8436 14.1323 11.1564 14.1323 11.457 14.0617C11.7971 13.9819 12.1127 13.7767 12.744 13.3664L18.6345 10.1571C19.4137 9.73256 19.8033 9.5203 20.1217 9.55935C20.3996 9.59343 20.6505 9.74244 20.8134 9.97015C21 10.2311 21 10.6748 21 11.5621V16.2C21 17.8802 21 18.7202 20.673 19.362C20.3854 19.9265 19.9265 20.3854 19.362 20.673C18.7202 21 17.8802 21 16.2 21Z" stroke="#303233" stroke-width="2" stroke-linecap="round" stroke-linejoin="round"/>
</svg>
