<svg width="22" height="20" viewBox="0 0 22 20" fill="none" xmlns="http://www.w3.org/2000/svg">
<path d="M12.7765 1.10222L13.0353 0.136297L13.0353 0.136297L12.7765 1.10222ZM14 5C14 5.55228 14.4477 6 15 6C15.5523 6 16 5.55228 16 5H14ZM14.8978 3.22354L15.8637 2.96472L15.8637 2.96472L14.8978 3.22354ZM9.22354 1.10222L9.48236 2.06815L9.48236 2.06815L9.22354 1.10222ZM6 5C6 5.55228 6.44772 6 7 6C7.55228 6 8 5.55228 8 5H6ZM7.10222 3.22354L8.06815 3.48236L8.06815 3.48236L7.10222 3.22354ZM2.09202 18.782L2.54601 17.891L2.09202 18.782ZM1.21799 17.908L2.10899 17.454L1.21799 17.908ZM20.782 17.908L19.891 17.454L20.782 17.908ZM19.908 18.782L19.454 17.891L19.908 18.782ZM19.908 5.21799L19.454 6.10899L19.908 5.21799ZM20.782 6.09202L19.891 6.54601L20.782 6.09202ZM2.09202 5.21799L2.54601 6.10899L2.09202 5.21799ZM1.21799 6.09202L2.10899 6.54601L1.21799 6.09202ZM9 13C8.44772 13 8 13.4477 8 14C8 14.5523 8.44772 15 9 15V13ZM13 15C13.5523 15 14 14.5523 14 14C14 13.4477 13.5523 13 13 13V15ZM2 9C1.44772 9 1 9.44772 1 10C1 10.5523 1.44772 11 2 11V9ZM20 11C20.5523 11 21 10.5523 21 10C21 9.44772 20.5523 9 20 9V11ZM11 2C11.9944 2 12.2954 2.00859 12.5176 2.06815L13.0353 0.136297C12.4946 -0.0085892 11.8656 0 11 0V2ZM16 5C16 4.13441 16.0086 3.50545 15.8637 2.96472L13.9319 3.48236C13.9914 3.70464 14 4.00565 14 5H16ZM12.5176 2.06815C13.2078 2.25308 13.7469 2.79218 13.9319 3.48236L15.8637 2.96472C15.4938 1.58436 14.4156 0.506165 13.0353 0.136297L12.5176 2.06815ZM11 0C10.1344 0 9.50545 -0.00858921 8.96472 0.136297L9.48236 2.06815C9.70464 2.00859 10.0056 2 11 2V0ZM8 5C8 4.00565 8.00859 3.70464 8.06815 3.48236L6.1363 2.96472C5.99141 3.50545 6 4.13441 6 5H8ZM8.96472 0.136297C7.58436 0.506165 6.50617 1.58436 6.1363 2.96472L8.06815 3.48236C8.25308 2.79218 8.79218 2.25308 9.48236 2.06815L8.96472 0.136297ZM4.2 6H17.8V4H4.2V6ZM20 8.2V15.8H22V8.2H20ZM17.8 18H4.2V20H17.8V18ZM2 15.8V8.2H0V15.8H2ZM4.2 18C3.62345 18 3.25117 17.9992 2.96784 17.9761C2.69617 17.9539 2.59545 17.9162 2.54601 17.891L1.63803 19.673C2.01641 19.8658 2.40963 19.9371 2.80497 19.9694C3.18864 20.0008 3.65645 20 4.2 20V18ZM0 15.8C0 16.3436 -0.000777705 16.8114 0.0305695 17.195C0.0628704 17.5904 0.134186 17.9836 0.32698 18.362L2.10899 17.454C2.0838 17.4045 2.04612 17.3038 2.02393 17.0322C2.00078 16.7488 2 16.3766 2 15.8H0ZM2.54601 17.891C2.35785 17.7951 2.20487 17.6422 2.10899 17.454L0.32698 18.362C0.614601 18.9265 1.07354 19.3854 1.63803 19.673L2.54601 17.891ZM20 15.8C20 16.3766 19.9992 16.7488 19.9761 17.0322C19.9539 17.3038 19.9162 17.4045 19.891 17.454L21.673 18.362C21.8658 17.9836 21.9371 17.5904 21.9694 17.195C22.0008 16.8114 22 16.3436 22 15.8H20ZM17.8 20C18.3436 20 18.8114 20.0008 19.195 19.9694C19.5904 19.9371 19.9836 19.8658 20.362 19.673L19.454 17.891C19.4045 17.9162 19.3038 17.9539 19.0322 17.9761C18.7488 17.9992 18.3766 18 17.8 18V20ZM19.891 17.454C19.7951 17.6422 19.6422 17.7951 19.454 17.891L20.362 19.673C20.9265 19.3854 21.3854 18.9265 21.673 18.362L19.891 17.454ZM17.8 6C18.3766 6 18.7488 6.00078 19.0322 6.02393C19.3038 6.04612 19.4045 6.0838 19.454 6.10899L20.362 4.32698C19.9836 4.13419 19.5904 4.06287 19.195 4.03057C18.8114 3.99922 18.3436 4 17.8 4V6ZM22 8.2C22 7.65645 22.0008 7.18864 21.9694 6.80497C21.9371 6.40963 21.8658 6.01641 21.673 5.63803L19.891 6.54601C19.9162 6.59545 19.9539 6.69617 19.9761 6.96784C19.9992 7.25117 20 7.62345 20 8.2H22ZM19.454 6.10899C19.6422 6.20487 19.7951 6.35785 19.891 6.54601L21.673 5.63803C21.3854 5.07354 20.9265 4.6146 20.362 4.32698L19.454 6.10899ZM4.2 4C3.65645 4 3.18864 3.99922 2.80497 4.03057C2.40963 4.06287 2.01641 4.13419 1.63803 4.32698L2.54601 6.10899C2.59545 6.0838 2.69617 6.04612 2.96784 6.02393C3.25117 6.00078 3.62345 6 4.2 6V4ZM2 8.2C2 7.62345 2.00078 7.25117 2.02393 6.96784C2.04612 6.69617 2.0838 6.59545 2.10899 6.54601L0.32698 5.63803C0.134186 6.01641 0.0628704 6.40963 0.0305695 6.80497C-0.000777706 7.18864 0 7.65645 0 8.2H2ZM1.63803 4.32698C1.07354 4.6146 0.614601 5.07354 0.32698 5.63803L2.10899 6.54601C2.20487 6.35785 2.35785 6.20487 2.54601 6.10899L1.63803 4.32698ZM9 15H13V13H9V15ZM2 11H20V9H2V11Z" fill="#303233"/>
</svg>
